# xmcd CD database file
#
# Track frame offsets:
#	150
#	9663
#	20458
#	32595
#	44587
#	59651
#	72297
#	87840
#	100410
#	113996
#	127297
#
# Disc length: 1873 seconds
#
# Revision: 5
# Processed by: cddbd v1.5.1PL0 Copyright (c) Steve Scherf et al.
# Submitted via: CDex 1.51
#
DISCID=9c074f0b
DTITLE=Lupillo Rivera - Con Mis Propias Manos
DYEAR=2004
DGENRE=Banda
TTITLE0=Qué Tal Si Te Compro?
TTITLE1=Laguna de Pesares
TTITLE2=Con Mis Propias Manos
TTITLE3=Los Chismes
TTITLE4=Poco a Poco (Llegando A Ti)
TTITLE5=Los Pájaros
TTITLE6=Lo Que Sobran Son Mujeres
TTITLE7=Navegando Sin Tu Amor
TTITLE8=Renunciación
TTITLE9=En Mi Viejo San Juan
TTITLE10=Guantanamera
EXTD=YEAR: 2004
EXTT0=
EXTT1=
EXTT2=
EXTT3=
EXTT4=
EXTT5=
EXTT6=
EXTT7=
EXTT8=
EXTT9=
EXTT10=
PLAYORDER=
